<?xml version="1.0" encoding="UTF-8" standalone="no"?>
<!DOCTYPE svg PUBLIC "-//W3C//DTD SVG 1.1//EN"
 "http://www.w3.org/Graphics/SVG/1.1/DTD/svg11.dtd">
<!-- Generated by graphviz version 2.43.0 (0)
 -->
<!-- Title: node_deps Pages: 1 -->
<svg width="295pt" height="2550pt"
 viewBox="0.00 0.00 294.50 2550.00" xmlns="http://www.w3.org/2000/svg" xmlns:xlink="http://www.w3.org/1999/xlink">
<g id="graph0" class="graph" transform="scale(1 1) rotate(0) translate(4 2546)">
<title>node_deps</title>
<g id="clust1" class="cluster">
<title>cluster_build</title>
<polygon fill="transparent" stroke="#7dd3fc" points="8,-2135 8,-2534 278.5,-2534 278.5,-2135 8,-2135"/>
<text text-anchor="middle" x="143.25" y="-2518.8" font-family="Times,serif" font-size="14.00">build&#45;dependencies</text>
</g>
<g id="clust2" class="cluster">
<title>cluster_dev</title>
<polygon fill="transparent" stroke="#fb7185" points="133.5,-8 133.5,-245 277.5,-245 277.5,-8 133.5,-8"/>
<text text-anchor="middle" x="205.5" y="-229.8" font-family="Times,serif" font-size="14.00">dev&#45;dependencies</text>
</g>
<!-- the_block -->
<g id="node1" class="node">
<title>the_block</title>
<polygon fill="#1f2937" stroke="black" points="90,-2179 16,-2179 16,-2143 90,-2143 90,-2179"/>
<text text-anchor="middle" x="53" y="-2157.9" font-family="Inter" font-size="12.00" fill="#f8fafc">the_block</text>
</g>
<!-- base64_fp -->
<g id="node2" class="node">
<title>base64_fp</title>
<polygon fill="#0f172a" stroke="black" points="244,-2125 166,-2125 166,-2089 244,-2089 244,-2125"/>
<text text-anchor="middle" x="205" y="-2103.9" font-family="Inter" font-size="12.00" fill="#e2e8f0">base64_fp</text>
</g>
<!-- the_block&#45;&gt;base64_fp -->
<g id="edge1" class="edge">
<title>the_block&#45;&gt;base64_fp</title>
<path fill="none" stroke="#38bdf8" d="M90.36,-2145.05C101.69,-2140.3 114.28,-2135.23 126,-2131 135.59,-2127.53 145.96,-2124.12 155.91,-2121"/>
<polygon fill="#38bdf8" stroke="#38bdf8" points="157.15,-2124.28 165.67,-2117.99 155.08,-2117.59 157.15,-2124.28"/>
</g>
<!-- bridges -->
<g id="node3" class="node">
<title>bridges</title>
<polygon fill="#0f172a" stroke="black" points="235.5,-2071 174.5,-2071 174.5,-2035 235.5,-2035 235.5,-2071"/>
<text text-anchor="middle" x="205" y="-2049.9" font-family="Inter" font-size="12.00" fill="#e2e8f0">bridges</text>
</g>
<!-- the_block&#45;&gt;bridges -->
<g id="edge2" class="edge">
<title>the_block&#45;&gt;bridges</title>
<path fill="none" stroke="#38bdf8" d="M65.98,-2142.76C78.82,-2124.52 100.81,-2096.82 126,-2080 137.59,-2072.26 151.62,-2066.51 164.57,-2062.35"/>
<polygon fill="#38bdf8" stroke="#38bdf8" points="165.63,-2065.69 174.21,-2059.47 163.63,-2058.98 165.63,-2065.69"/>
</g>
<!-- cli_core -->
<g id="node4" class="node">
<title>cli_core</title>
<polygon fill="#0f172a" stroke="black" points="236,-2017 174,-2017 174,-1981 236,-1981 236,-2017"/>
<text text-anchor="middle" x="205" y="-1995.9" font-family="Inter" font-size="12.00" fill="#e2e8f0">cli_core</text>
</g>
<!-- the_block&#45;&gt;cli_core -->
<g id="edge3" class="edge">
<title>the_block&#45;&gt;cli_core</title>
<path fill="none" stroke="#38bdf8" d="M58.92,-2142.97C67.68,-2114.21 88.64,-2057.92 126,-2026 136.77,-2016.8 150.84,-2010.68 164.07,-2006.63"/>
<polygon fill="#38bdf8" stroke="#38bdf8" points="165.23,-2009.95 173.95,-2003.93 163.38,-2003.19 165.23,-2009.95"/>
</g>
<!-- codec -->
<g id="node5" class="node">
<title>codec</title>
<polygon fill="#0f172a" stroke="black" points="232,-1963 178,-1963 178,-1927 232,-1927 232,-1963"/>
<text text-anchor="middle" x="205" y="-1941.9" font-family="Inter" font-size="12.00" fill="#e2e8f0">codec</text>
</g>
<!-- the_block&#45;&gt;codec -->
<g id="edge4" class="edge">
<title>the_block&#45;&gt;codec</title>
<path fill="none" stroke="#38bdf8" d="M55.83,-2142.9C60.55,-2105.68 76.47,-2020.03 126,-1972 137.37,-1960.98 153.45,-1954.44 168.07,-1950.57"/>
<polygon fill="#38bdf8" stroke="#38bdf8" points="168.92,-1953.96 177.87,-1948.29 167.34,-1947.14 168.92,-1953.96"/>
</g>
<!-- coding -->
<g id="node6" class="node">
<title>coding</title>
<polygon fill="#0f172a" stroke="black" points="233,-1909 177,-1909 177,-1873 233,-1873 233,-1909"/>
<text text-anchor="middle" x="205" y="-1887.9" font-family="Inter" font-size="12.00" fill="#e2e8f0">coding</text>
</g>
<!-- the_block&#45;&gt;coding -->
<g id="edge5" class="edge">
<title>the_block&#45;&gt;coding</title>
<path fill="none" stroke="#38bdf8" d="M54.04,-2142.7C55.13,-2098.1 64.13,-1982.73 126,-1918 136.78,-1906.72 152.5,-1900.15 167.01,-1896.33"/>
<polygon fill="#38bdf8" stroke="#38bdf8" points="167.81,-1899.73 176.78,-1894.09 166.25,-1892.91 167.81,-1899.73"/>
</g>
<!-- concurrency -->
<g id="node7" class="node">
<title>concurrency</title>
<polygon fill="#0f172a" stroke="black" points="250,-1855 160,-1855 160,-1819 250,-1819 250,-1855"/>
<text text-anchor="middle" x="205" y="-1833.9" font-family="Inter" font-size="12.00" fill="#e2e8f0">concurrency</text>
</g>
<!-- the_block&#45;&gt;concurrency -->
<g id="edge6" class="edge">
<title>the_block&#45;&gt;concurrency</title>
<path fill="none" stroke="#38bdf8" d="M56.14,-2142.63C63.27,-2084.49 87.91,-1905.91 126,-1864 132.58,-1856.76 141.2,-1851.46 150.3,-1847.58"/>
<polygon fill="#38bdf8" stroke="#38bdf8" points="151.73,-1850.78 159.9,-1844.03 149.3,-1844.22 151.73,-1850.78"/>
</g>
<!-- crypto -->
<g id="node8" class="node">
<title>crypto</title>
<polygon fill="#0f172a" stroke="black" points="232.5,-1801 177.5,-1801 177.5,-1765 232.5,-1765 232.5,-1801"/>
<text text-anchor="middle" x="205" y="-1779.9" font-family="Inter" font-size="12.00" fill="#e2e8f0">crypto</text>
</g>
<!-- the_block&#45;&gt;crypto -->
<g id="edge7" class="edge">
<title>the_block&#45;&gt;crypto</title>
<path fill="none" stroke="#38bdf8" d="M55.41,-2142.58C60.71,-2077.66 81.5,-1860.75 126,-1810 136.52,-1798.01 152.64,-1791.34 167.5,-1787.63"/>
<polygon fill="#38bdf8" stroke="#38bdf8" points="168.44,-1791.01 177.5,-1785.51 166.99,-1784.16 168.44,-1791.01"/>
</g>
<!-- dex -->
<g id="node9" class="node">
<title>dex</title>
<polygon fill="#0f172a" stroke="black" points="232,-1747 178,-1747 178,-1711 232,-1711 232,-1747"/>
<text text-anchor="middle" x="205" y="-1725.9" font-family="Inter" font-size="12.00" fill="#e2e8f0">dex</text>
</g>
<!-- the_block&#45;&gt;dex -->
<g id="edge8" class="edge">
<title>the_block&#45;&gt;dex</title>
<path fill="none" stroke="#38bdf8" d="M54.84,-2142.77C58.48,-2071.9 74.99,-1815.74 126,-1756 136.43,-1743.78 152.69,-1737.09 167.67,-1733.42"/>
<polygon fill="#38bdf8" stroke="#38bdf8" points="168.66,-1736.79 177.75,-1731.34 167.24,-1729.93 168.66,-1736.79"/>
</g>
<!-- diagnostics -->
<g id="node10" class="node">
<title>diagnostics</title>
<polygon fill="#0f172a" stroke="black" points="246.5,-1693 163.5,-1693 163.5,-1657 246.5,-1657 246.5,-1693"/>
<text text-anchor="middle" x="205" y="-1671.9" font-family="Inter" font-size="12.00" fill="#e2e8f0">diagnostics</text>
</g>
<!-- the_block&#45;&gt;diagnostics -->
<g id="edge9" class="edge">
<title>the_block&#45;&gt;diagnostics</title>
<path fill="none" stroke="#38bdf8" d="M54.43,-2142.76C56.57,-2066.08 68.49,-1770.75 126,-1702 133.18,-1693.42 143.24,-1687.56 153.75,-1683.56"/>
<polygon fill="#38bdf8" stroke="#38bdf8" points="155.04,-1686.82 163.46,-1680.39 152.87,-1680.16 155.04,-1686.82"/>
</g>
<!-- dkg -->
<g id="node11" class="node">
<title>dkg</title>
<polygon fill="#0f172a" stroke="black" points="232,-1639 178,-1639 178,-1603 232,-1603 232,-1639"/>
<text text-anchor="middle" x="205" y="-1617.9" font-family="Inter" font-size="12.00" fill="#e2e8f0">dkg</text>
</g>
<!-- the_block&#45;&gt;dkg -->
<g id="edge10" class="edge">
<title>the_block&#45;&gt;dkg</title>
<path fill="none" stroke="#38bdf8" d="M54.09,-2142.88C54.86,-2060.96 61.93,-1725.87 126,-1648 136.28,-1635.5 152.67,-1628.78 167.78,-1625.16"/>
<polygon fill="#38bdf8" stroke="#38bdf8" points="168.83,-1628.52 177.95,-1623.13 167.45,-1621.66 168.83,-1628.52"/>
</g>
<!-- foundation_archive -->
<g id="node12" class="node">
<title>foundation_archive</title>
<polygon fill="#0f172a" stroke="black" points="270.5,-1585 139.5,-1585 139.5,-1549 270.5,-1549 270.5,-1585"/>
<text text-anchor="middle" x="205" y="-1563.9" font-family="Inter" font-size="12.00" fill="#e2e8f0">foundation_archive</text>
</g>
<!-- the_block&#45;&gt;foundation_archive -->
<g id="edge11" class="edge">
<title>the_block&#45;&gt;foundation_archive</title>
<path fill="none" stroke="#38bdf8" d="M53.82,-2142.76C53.33,-2055.47 55.4,-1680.95 126,-1594 127.5,-1592.15 129.14,-1590.42 130.89,-1588.81"/>
<polygon fill="#38bdf8" stroke="#38bdf8" points="133.36,-1591.33 139.2,-1582.49 129.12,-1585.76 133.36,-1591.33"/>
</g>
<!-- foundation_math -->
<g id="node13" class="node">
<title>foundation_math</title>
<polygon fill="#0f172a" stroke="black" points="264.5,-1531 145.5,-1531 145.5,-1495 264.5,-1495 264.5,-1531"/>
<text text-anchor="middle" x="205" y="-1509.9" font-family="Inter" font-size="12.00" fill="#e2e8f0">foundation_math</text>
</g>
<!-- the_block&#45;&gt;foundation_math -->
<g id="edge12" class="edge">
<title>the_block&#45;&gt;foundation_math</title>
<path fill="none" stroke="#38bdf8" d="M53.6,-2142.9C51.92,-2050.95 48.79,-1636.16 126,-1540 128.96,-1536.32 132.44,-1533.14 136.28,-1530.39"/>
<polygon fill="#38bdf8" stroke="#38bdf8" points="138.39,-1533.2 145.15,-1525.03 134.78,-1527.2 138.39,-1533.2"/>
</g>
<!-- foundation_metrics -->
<g id="node14" class="node">
<title>foundation_metrics</title>
<polygon fill="#0f172a" stroke="black" points="271,-1477 139,-1477 139,-1441 271,-1441 271,-1477"/>
<text text-anchor="middle" x="205" y="-1455.9" font-family="Inter" font-size="12.00" fill="#e2e8f0">foundation_metrics</text>
</g>
<!-- the_block&#45;&gt;foundation_metrics -->
<g id="edge13" class="edge">
<title>the_block&#45;&gt;foundation_metrics</title>
<path fill="none" stroke="#38bdf8" d="M54.79,-2142.84C59.37,-2040.53 83.86,-1538.98 126,-1486 127.45,-1484.18 129.03,-1482.48 130.72,-1480.89"/>
<polygon fill="#38bdf8" stroke="#38bdf8" points="133,-1483.55 138.74,-1474.65 128.7,-1478.03 133,-1483.55"/>
</g>
<!-- foundation_profiler -->
<g id="node15" class="node">
<title>foundation_profiler</title>
<polygon fill="#0f172a" stroke="black" points="270,-1423 140,-1423 140,-1387 270,-1387 270,-1423"/>
<text text-anchor="middle" x="205" y="-1401.9" font-family="Inter" font-size="12.00" fill="#e2e8f0">foundation_profiler</text>
</g>
<!-- the_block&#45;&gt;foundation_profiler -->
<g id="edge14" class="edge">
<title>the_block&#45;&gt;foundation_profiler</title>
<path fill="none" stroke="#38bdf8" d="M54.64,-2142.8C58.54,-2035.65 80.56,-1489.6 126,-1432 127.67,-1429.88 129.52,-1427.93 131.5,-1426.13"/>
<polygon fill="#38bdf8" stroke="#38bdf8" points="133.89,-1428.72 139.79,-1419.92 129.69,-1423.12 133.89,-1428.72"/>
</g>
<!-- foundation_regex -->
<g id="node16" class="node">
<title>foundation_regex</title>
<polygon fill="#0f172a" stroke="black" points="265.5,-1369 144.5,-1369 144.5,-1333 265.5,-1333 265.5,-1369"/>
<text text-anchor="middle" x="205" y="-1347.9" font-family="Inter" font-size="12.00" fill="#e2e8f0">foundation_regex</text>
</g>
<!-- the_block&#45;&gt;foundation_regex -->
<g id="edge15" class="edge">
<title>the_block&#45;&gt;foundation_regex</title>
<path fill="none" stroke="#38bdf8" d="M54.5,-2142.93C57.75,-2031.48 77.22,-1440.26 126,-1378 128.73,-1374.51 131.95,-1371.47 135.48,-1368.82"/>
<polygon fill="#38bdf8" stroke="#38bdf8" points="137.63,-1371.6 144.24,-1363.32 133.91,-1365.67 137.63,-1371.6"/>
</g>
<!-- foundation_rpc -->
<g id="node17" class="node">
<title>foundation_rpc</title>
<polygon fill="#0f172a" stroke="black" points="258.5,-1315 151.5,-1315 151.5,-1279 258.5,-1279 258.5,-1315"/>
<text text-anchor="middle" x="205" y="-1293.9" font-family="Inter" font-size="12.00" fill="#e2e8f0">foundation_rpc</text>
</g>
<!-- the_block&#45;&gt;foundation_rpc -->
<g id="edge16" class="edge">
<title>the_block&#45;&gt;foundation_rpc</title>
<path fill="none" stroke="#38bdf8" d="M54.39,-2142.83C57.05,-2026.66 73.91,-1390.88 126,-1324 130.32,-1318.45 135.85,-1314.04 141.96,-1310.53"/>
<polygon fill="#38bdf8" stroke="#38bdf8" points="143.8,-1313.53 151.26,-1306.01 140.74,-1307.24 143.8,-1313.53"/>
</g>
<!-- foundation_serde -->
<g id="node18" class="node">
<title>foundation_serde</title>
<polygon fill="#0f172a" stroke="black" points="265,-1261 145,-1261 145,-1225 265,-1225 265,-1261"/>
<text text-anchor="middle" x="205" y="-1239.9" font-family="Inter" font-size="12.00" fill="#e2e8f0">foundation_serde</text>
</g>
<!-- the_block&#45;&gt;foundation_serde -->
<g id="edge17" class="edge">
<title>the_block&#45;&gt;foundation_serde</title>
<path fill="none" stroke="#38bdf8" d="M54.29,-2142.84C56.38,-2022.39 70.58,-1341.54 126,-1270 128.89,-1266.27 132.33,-1263.05 136.13,-1260.27"/>
<polygon fill="#38bdf8" stroke="#38bdf8" points="138.24,-1263.08 144.95,-1254.87 134.59,-1257.11 138.24,-1263.08"/>
</g>
<!-- foundation_serialization -->
<g id="node19" class="node">
<title>foundation_serialization</title>
<polygon fill="#0f172a" stroke="black" points="284,-1207 126,-1207 126,-1171 284,-1171 284,-1207"/>
<text text-anchor="middle" x="205" y="-1185.9" font-family="Inter" font-size="12.00" fill="#e2e8f0">foundation_serialization</text>
</g>
<!-- the_block&#45;&gt;foundation_serialization -->
<g id="edge18" class="edge">
<title>the_block&#45;&gt;foundation_serialization</title>
<path fill="none" stroke="#38bdf8" d="M54.2,-2142.95C55.74,-2018.66 67.23,-1292.23 126,-1216 126.49,-1215.36 127,-1214.74 127.52,-1214.13"/>
<polygon fill="#38bdf8" stroke="#38bdf8" points="130.21,-1216.41 135.1,-1207.01 125.41,-1211.31 130.21,-1216.41"/>
</g>
<!-- foundation_telemetry -->
<g id="node20" class="node">
<title>foundation_telemetry</title>
<polygon fill="#0f172a" stroke="black" points="278,-1153 132,-1153 132,-1117 278,-1117 278,-1153"/>
<text text-anchor="middle" x="205" y="-1131.9" font-family="Inter" font-size="12.00" fill="#e2e8f0">foundation_telemetry</text>
</g>
<!-- the_block&#45;&gt;foundation_telemetry -->
<g id="edge19" class="edge">
<title>the_block&#45;&gt;foundation_telemetry</title>
<path fill="none" stroke="#38bdf8" d="M54.12,-2142.76C55.16,-2013.83 63.92,-1242.86 126,-1162 126.49,-1161.36 127,-1160.74 127.52,-1160.13"/>
<polygon fill="#38bdf8" stroke="#38bdf8" points="130.2,-1162.41 135.08,-1153 125.4,-1157.31 130.2,-1162.41"/>
</g>
<!-- foundation_time -->
<g id="node21" class="node">
<title>foundation_time</title>
<polygon fill="#0f172a" stroke="black" points="262,-1099 148,-1099 148,-1063 262,-1063 262,-1099"/>
<text text-anchor="middle" x="205" y="-1077.9" font-family="Inter" font-size="12.00" fill="#e2e8f0">foundation_time</text>
</g>
<!-- the_block&#45;&gt;foundation_time -->
<g id="edge20" class="edge">
<title>the_block&#45;&gt;foundation_time</title>
<path fill="none" stroke="#38bdf8" d="M54.05,-2142.63C54.6,-2009.36 60.6,-1193.51 126,-1108 129.63,-1103.26 134.13,-1099.35 139.14,-1096.12"/>
<polygon fill="#38bdf8" stroke="#38bdf8" points="140.87,-1099.16 147.98,-1091.31 137.53,-1093.02 140.87,-1099.16"/>
</g>
<!-- foundation_tui -->
<g id="node22" class="node">
<title>foundation_tui</title>
<polygon fill="#0f172a" stroke="black" points="256,-1045 154,-1045 154,-1009 256,-1009 256,-1045"/>
<text text-anchor="middle" x="205" y="-1023.9" font-family="Inter" font-size="12.00" fill="#e2e8f0">foundation_tui</text>
</g>
<!-- the_block&#45;&gt;foundation_tui -->
<g id="edge21" class="edge">
<title>the_block&#45;&gt;foundation_tui</title>
<path fill="none" stroke="#38bdf8" d="M53.99,-2142.58C54.06,-2005.25 57.27,-1144.18 126,-1054 130.89,-1047.59 137.39,-1042.69 144.57,-1038.95"/>
<polygon fill="#38bdf8" stroke="#38bdf8" points="146.21,-1042.05 153.94,-1034.81 143.38,-1035.65 146.21,-1042.05"/>
</g>
<!-- foundation_unicode -->
<g id="node23" class="node">
<title>foundation_unicode</title>
<polygon fill="#0f172a" stroke="black" points="272,-991 138,-991 138,-955 272,-955 272,-991"/>
<text text-anchor="middle" x="205" y="-969.9" font-family="Inter" font-size="12.00" fill="#e2e8f0">foundation_unicode</text>
</g>
<!-- the_block&#45;&gt;foundation_unicode -->
<g id="edge22" class="edge">
<title>the_block&#45;&gt;foundation_unicode</title>
<path fill="none" stroke="#38bdf8" d="M53.93,-2142.59C53.55,-2001.5 53.92,-1094.87 126,-1000 127.24,-998.37 128.57,-996.85 130,-995.41"/>
<polygon fill="#38bdf8" stroke="#38bdf8" points="132.33,-998.03 137.81,-988.96 127.87,-992.63 132.33,-998.03"/>
</g>
<!-- governance -->
<g id="node24" class="node">
<title>governance</title>
<polygon fill="#0f172a" stroke="black" points="248.5,-937 161.5,-937 161.5,-901 248.5,-901 248.5,-937"/>
<text text-anchor="middle" x="205" y="-915.9" font-family="Inter" font-size="12.00" fill="#e2e8f0">governance</text>
</g>
<!-- the_block&#45;&gt;governance -->
<g id="edge23" class="edge">
<title>the_block&#45;&gt;governance</title>
<path fill="none" stroke="#38bdf8" d="M53.88,-2142.66C53.06,-1998.12 50.55,-1045.58 126,-946 132.43,-937.52 141.69,-931.68 151.6,-927.68"/>
<polygon fill="#38bdf8" stroke="#38bdf8" points="152.91,-930.93 161.23,-924.37 150.64,-924.31 152.91,-930.93"/>
</g>
<!-- histogram_fp -->
<g id="node25" class="node">
<title>histogram_fp</title>
<polygon fill="#0f172a" stroke="black" points="252.5,-883 157.5,-883 157.5,-847 252.5,-847 252.5,-883"/>
<text text-anchor="middle" x="205" y="-861.9" font-family="Inter" font-size="12.00" fill="#e2e8f0">histogram_fp</text>
</g>
<!-- the_block&#45;&gt;histogram_fp -->
<g id="edge24" class="edge">
<title>the_block&#45;&gt;histogram_fp</title>
<path fill="none" stroke="#38bdf8" d="M53.83,-2142.79C52.59,-1995.11 47.18,-996.31 126,-892 131.58,-884.61 139.32,-879.23 147.76,-875.32"/>
<polygon fill="#38bdf8" stroke="#38bdf8" points="149.12,-878.55 157.14,-871.62 146.55,-872.04 149.12,-878.55"/>
</g>
<!-- http_env -->
<g id="node26" class="node">
<title>http_env</title>
<polygon fill="#0f172a" stroke="black" points="239,-829 171,-829 171,-793 239,-793 239,-829"/>
<text text-anchor="middle" x="205" y="-807.9" font-family="Inter" font-size="12.00" fill="#e2e8f0">http_env</text>
</g>
<!-- the_block&#45;&gt;http_env -->
<g id="edge25" class="edge">
<title>the_block&#45;&gt;http_env</title>
<path fill="none" stroke="#38bdf8" d="M54.42,-2142.62C58.03,-1986.88 84.85,-892.59 126,-838 134.39,-826.88 147.65,-820.31 160.88,-816.44"/>
<polygon fill="#38bdf8" stroke="#38bdf8" points="162.03,-819.76 170.91,-813.97 160.36,-812.96 162.03,-819.76"/>
</g>
<!-- httpd -->
<g id="node27" class="node">
<title>httpd</title>
<polygon fill="#0f172a" stroke="black" points="232,-775 178,-775 178,-739 232,-739 232,-775"/>
<text text-anchor="middle" x="205" y="-753.9" font-family="Inter" font-size="12.00" fill="#e2e8f0">httpd</text>
</g>
<!-- the_block&#45;&gt;httpd -->
<g id="edge26" class="edge">
<title>the_block&#45;&gt;httpd</title>
<path fill="none" stroke="#38bdf8" d="M54.37,-2142.88C57.7,-1984.57 83.14,-840.97 126,-784 135.89,-770.85 152.61,-764.06 168.03,-760.58"/>
<polygon fill="#38bdf8" stroke="#38bdf8" points="168.71,-764.01 177.9,-758.73 167.42,-757.13 168.71,-764.01"/>
</g>
<!-- inflation -->
<g id="node28" class="node">
<title>inflation</title>
<polygon fill="#0f172a" stroke="black" points="237.5,-721 172.5,-721 172.5,-685 237.5,-685 237.5,-721"/>
<text text-anchor="middle" x="205" y="-699.9" font-family="Inter" font-size="12.00" fill="#e2e8f0">inflation</text>
</g>
<!-- the_block&#45;&gt;inflation -->
<g id="edge27" class="edge">
<title>the_block&#45;&gt;inflation</title>
<path fill="none" stroke="#38bdf8" d="M54.33,-2142.94C57.4,-1981.4 81.46,-789.34 126,-730 134.72,-718.38 148.77,-711.73 162.56,-707.93"/>
<polygon fill="#38bdf8" stroke="#38bdf8" points="163.52,-711.31 172.47,-705.65 161.94,-704.48 163.52,-711.31"/>
</g>
<!-- ledger -->
<g id="node29" class="node">
<title>ledger</title>
<polygon fill="#0f172a" stroke="black" points="232.5,-667 177.5,-667 177.5,-631 232.5,-631 232.5,-667"/>
<text text-anchor="middle" x="205" y="-645.9" font-family="Inter" font-size="12.00" fill="#e2e8f0">ledger</text>
</g>
<!-- the_block&#45;&gt;ledger -->
<g id="edge28" class="edge">
<title>the_block&#45;&gt;ledger</title>
<path fill="none" stroke="#38bdf8" d="M54.3,-2142.78C57.13,-1977.22 79.79,-737.68 126,-676 135.7,-663.05 152.03,-656.27 167.24,-652.74"/>
<polygon fill="#38bdf8" stroke="#38bdf8" points="168.33,-656.09 177.5,-650.77 167.02,-649.22 168.33,-656.09"/>
</g>
<!-- light&#45;client -->
<g id="node30" class="node">
<title>light&#45;client</title>
<polygon fill="#0f172a" stroke="black" points="244.5,-613 165.5,-613 165.5,-577 244.5,-577 244.5,-613"/>
<text text-anchor="middle" x="205" y="-591.9" font-family="Inter" font-size="12.00" fill="#e2e8f0">light&#45;client</text>
</g>
<!-- the_block&#45;&gt;light&#45;client -->
<g id="edge29" class="edge">
<title>the_block&#45;&gt;light&#45;client</title>
<path fill="none" stroke="#38bdf8" d="M54.27,-2142.92C56.84,-1974.58 78.09,-686.06 126,-622 133.24,-612.32 144.18,-606.08 155.6,-602.08"/>
<polygon fill="#38bdf8" stroke="#38bdf8" points="156.64,-605.42 165.23,-599.21 154.64,-598.71 156.64,-605.42"/>
</g>
<!-- log_index -->
<g id="node31" class="node">
<title>log_index</title>
<polygon fill="#0f172a" stroke="black" points="241.5,-559 168.5,-559 168.5,-523 241.5,-523 241.5,-559"/>
<text text-anchor="middle" x="205" y="-537.9" font-family="Inter" font-size="12.00" fill="#e2e8f0">log_index</text>
</g>
<!-- the_block&#45;&gt;log_index -->
<g id="edge30" class="edge">
<title>the_block&#45;&gt;log_index</title>
<path fill="none" stroke="#38bdf8" d="M54.24,-2142.83C56.59,-1970.83 76.41,-634.41 126,-568 133.85,-557.49 146.05,-551.04 158.5,-547.1"/>
<polygon fill="#38bdf8" stroke="#38bdf8" points="159.7,-550.4 168.45,-544.44 157.89,-543.64 159.7,-550.4"/>
</g>
<!-- p2p_overlay -->
<g id="node32" class="node">
<title>p2p_overlay</title>
<polygon fill="#0f172a" stroke="black" points="249.5,-505 160.5,-505 160.5,-469 249.5,-469 249.5,-505"/>
<text text-anchor="middle" x="205" y="-483.9" font-family="Inter" font-size="12.00" fill="#e2e8f0">p2p_overlay</text>
</g>
<!-- the_block&#45;&gt;p2p_overlay -->
<g id="edge31" class="edge">
<title>the_block&#45;&gt;p2p_overlay</title>
<path fill="none" stroke="#38bdf8" d="M54.21,-2142.77C56.34,-1967.27 74.73,-582.77 126,-514 132.17,-505.73 141.03,-499.97 150.6,-495.97"/>
<polygon fill="#38bdf8" stroke="#38bdf8" points="152.06,-499.17 160.32,-492.53 149.72,-492.57 152.06,-499.17"/>
</g>
<!-- rand -->
<g id="node33" class="node">
<title>rand</title>
<polygon fill="#0f172a" stroke="black" points="232,-451 178,-451 178,-415 232,-415 232,-451"/>
<text text-anchor="middle" x="205" y="-429.9" font-family="Inter" font-size="12.00" fill="#e2e8f0">rand</text>
</g>
<!-- the_block&#45;&gt;rand -->
<g id="edge32" class="edge">
<title>the_block&#45;&gt;rand</title>
<path fill="none" stroke="#38bdf8" d="M54.19,-2142.73C56.1,-1963.91 73.05,-531.13 126,-460 135.83,-446.8 152.53,-440.01 167.97,-436.53"/>
<polygon fill="#38bdf8" stroke="#38bdf8" points="168.66,-439.97 177.85,-434.69 167.38,-433.08 168.66,-439.97"/>
</g>
<!-- runtime -->
<g id="node34" class="node">
<title>runtime</title>
<polygon fill="#0f172a" stroke="black" points="237,-397 173,-397 173,-361 237,-361 237,-397"/>
<text text-anchor="middle" x="205" y="-375.9" font-family="Inter" font-size="12.00" fill="#e2e8f0">runtime</text>
</g>
<!-- the_block&#45;&gt;runtime -->
<g id="edge33" class="edge">
<title>the_block&#45;&gt;runtime</title>
<path fill="none" stroke="#38bdf8" d="M54.16,-2142.72C55.86,-1960.74 71.36,-479.49 126,-406 134.74,-394.25 148.93,-387.58 162.83,-383.8"/>
<polygon fill="#38bdf8" stroke="#38bdf8" points="163.84,-387.16 172.81,-381.53 162.29,-380.33 163.84,-387.16"/>
</g>
<!-- sled -->
<g id="node35" class="node">
<title>sled</title>
<polygon fill="#0f172a" stroke="black" points="232,-343 178,-343 178,-307 232,-307 232,-343"/>
<text text-anchor="middle" x="205" y="-321.9" font-family="Inter" font-size="12.00" fill="#e2e8f0">sled</text>
</g>
<!-- the_block&#45;&gt;sled -->
<g id="edge34" class="edge">
<title>the_block&#45;&gt;sled</title>
<path fill="none" stroke="#38bdf8" d="M54.14,-2142.74C55.63,-1957.76 69.67,-427.87 126,-352 135.81,-338.79 152.52,-331.99 167.96,-328.52"/>
<polygon fill="#38bdf8" stroke="#38bdf8" points="168.64,-331.95 177.83,-326.69 167.36,-325.07 168.64,-331.95"/>
</g>
<!-- state -->
<g id="node36" class="node">
<title>state</title>
<polygon fill="#0f172a" stroke="black" points="232,-289 178,-289 178,-253 232,-253 232,-289"/>
<text text-anchor="middle" x="205" y="-267.9" font-family="Inter" font-size="12.00" fill="#e2e8f0">state</text>
</g>
<!-- the_block&#45;&gt;state -->
<g id="edge35" class="edge">
<title>the_block&#45;&gt;state</title>
<path fill="none" stroke="#38bdf8" d="M54.12,-2142.79C55.41,-1954.97 67.98,-376.24 126,-298 135.8,-284.78 152.51,-277.99 167.95,-274.52"/>
<polygon fill="#38bdf8" stroke="#38bdf8" points="168.64,-277.95 177.83,-272.68 167.36,-271.07 168.64,-277.95"/>
</g>
<!-- crypto_suite -->
<g id="node37" class="node">
<title>crypto_suite</title>
<polygon fill="#1d4ed8" stroke="black" points="249.5,-2179 160.5,-2179 160.5,-2143 249.5,-2143 249.5,-2179"/>
<text text-anchor="middle" x="205" y="-2157.9" font-family="Inter" font-size="12.00" fill="#f8fafc">crypto_suite</text>
</g>
<!-- the_block&#45;&gt;crypto_suite -->
<g id="edge36" class="edge">
<title>the_block&#45;&gt;crypto_suite</title>
<path fill="none" stroke="#93c5fd" stroke-dasharray="5,2" d="M90.31,-2161C108.25,-2161 130.26,-2161 150.12,-2161"/>
<polygon fill="#93c5fd" stroke="#93c5fd" points="150.28,-2164.5 160.28,-2161 150.28,-2157.5 150.28,-2164.5"/>
</g>
<!-- dependency_guard -->
<g id="node38" class="node">
<title>dependency_guard</title>
<polygon fill="#1d4ed8" stroke="black" points="270.5,-2233 139.5,-2233 139.5,-2197 270.5,-2197 270.5,-2233"/>
<text text-anchor="middle" x="205" y="-2211.9" font-family="Inter" font-size="12.00" fill="#f8fafc">dependency_guard</text>
</g>
<!-- the_block&#45;&gt;dependency_guard -->
<g id="edge37" class="edge">
<title>the_block&#45;&gt;dependency_guard</title>
<path fill="none" stroke="#93c5fd" stroke-dasharray="5,2" d="M90.19,-2174.78C101.62,-2179.07 114.32,-2183.79 126,-2188 131.06,-2189.82 136.3,-2191.69 141.58,-2193.55"/>
<polygon fill="#93c5fd" stroke="#93c5fd" points="140.47,-2196.87 151.07,-2196.88 142.79,-2190.27 140.47,-2196.87"/>
</g>
<!-- storage -->
<g id="node39" class="node">
<title>storage</title>
<polygon fill="#1d4ed8" stroke="black" points="236,-2287 174,-2287 174,-2251 236,-2251 236,-2287"/>
<text text-anchor="middle" x="205" y="-2265.9" font-family="Inter" font-size="12.00" fill="#f8fafc">storage</text>
</g>
<!-- the_block&#45;&gt;storage -->
<g id="edge38" class="edge">
<title>the_block&#45;&gt;storage</title>
<path fill="none" stroke="#93c5fd" stroke-dasharray="5,2" d="M65.98,-2179.24C78.82,-2197.48 100.81,-2225.18 126,-2242 137.49,-2249.67 151.39,-2255.4 164.26,-2259.55"/>
<polygon fill="#93c5fd" stroke="#93c5fd" points="163.25,-2262.9 173.83,-2262.43 165.26,-2256.2 163.25,-2262.9"/>
</g>
<!-- storage_engine -->
<g id="node40" class="node">
<title>storage_engine</title>
<polygon fill="#1d4ed8" stroke="black" points="259.5,-2341 150.5,-2341 150.5,-2305 259.5,-2305 259.5,-2341"/>
<text text-anchor="middle" x="205" y="-2319.9" font-family="Inter" font-size="12.00" fill="#f8fafc">storage_engine</text>
</g>
<!-- the_block&#45;&gt;storage_engine -->
<g id="edge39" class="edge">
<title>the_block&#45;&gt;storage_engine</title>
<path fill="none" stroke="#93c5fd" stroke-dasharray="5,2" d="M58.92,-2179.03C67.68,-2207.79 88.64,-2264.08 126,-2296 130.54,-2299.88 135.66,-2303.21 141.06,-2306.06"/>
<polygon fill="#93c5fd" stroke="#93c5fd" points="139.82,-2309.35 150.36,-2310.44 142.8,-2303.01 139.82,-2309.35"/>
</g>
<!-- sys -->
<g id="node41" class="node">
<title>sys</title>
<polygon fill="#1d4ed8" stroke="black" points="232,-2395 178,-2395 178,-2359 232,-2359 232,-2395"/>
<text text-anchor="middle" x="205" y="-2373.9" font-family="Inter" font-size="12.00" fill="#f8fafc">sys</text>
</g>
<!-- the_block&#45;&gt;sys -->
<g id="edge40" class="edge">
<title>the_block&#45;&gt;sys</title>
<path fill="none" stroke="#93c5fd" stroke-dasharray="5,2" d="M55.83,-2179.1C60.55,-2216.32 76.47,-2301.97 126,-2350 137.37,-2361.02 153.45,-2367.56 168.07,-2371.43"/>
<polygon fill="#93c5fd" stroke="#93c5fd" points="167.34,-2374.86 177.87,-2373.71 168.92,-2368.04 167.34,-2374.86"/>
</g>
<!-- tls_warning -->
<g id="node42" class="node">
<title>tls_warning</title>
<polygon fill="#1d4ed8" stroke="black" points="246.5,-2449 163.5,-2449 163.5,-2413 246.5,-2413 246.5,-2449"/>
<text text-anchor="middle" x="205" y="-2427.9" font-family="Inter" font-size="12.00" fill="#f8fafc">tls_warning</text>
</g>
<!-- the_block&#45;&gt;tls_warning -->
<g id="edge41" class="edge">
<title>the_block&#45;&gt;tls_warning</title>
<path fill="none" stroke="#93c5fd" stroke-dasharray="5,2" d="M54.04,-2179.3C55.13,-2223.9 64.13,-2339.27 126,-2404 133.58,-2411.93 143.6,-2417.53 153.93,-2421.49"/>
<polygon fill="#93c5fd" stroke="#93c5fd" points="152.84,-2424.82 163.44,-2424.68 155.07,-2418.18 152.84,-2424.82"/>
</g>
<!-- wallet -->
<g id="node43" class="node">
<title>wallet</title>
<polygon fill="#1d4ed8" stroke="black" points="232,-2503 178,-2503 178,-2467 232,-2467 232,-2503"/>
<text text-anchor="middle" x="205" y="-2481.9" font-family="Inter" font-size="12.00" fill="#f8fafc">wallet</text>
</g>
<!-- the_block&#45;&gt;wallet -->
<g id="edge42" class="edge">
<title>the_block&#45;&gt;wallet</title>
<path fill="none" stroke="#93c5fd" stroke-dasharray="5,2" d="M56.14,-2179.37C63.27,-2237.51 87.91,-2416.09 126,-2458 136.73,-2469.8 152.87,-2476.45 167.7,-2480.19"/>
<polygon fill="#93c5fd" stroke="#93c5fd" points="167.15,-2483.65 177.67,-2482.34 168.63,-2476.81 167.15,-2483.65"/>
</g>
<!-- foundation_tls -->
<g id="node44" class="node">
<title>foundation_tls</title>
<polygon fill="#be123c" stroke="black" points="255.5,-214 154.5,-214 154.5,-178 255.5,-178 255.5,-214"/>
<text text-anchor="middle" x="205" y="-192.9" font-family="Inter" font-size="12.00" fill="#f8fafc">foundation_tls</text>
</g>
<!-- the_block&#45;&gt;foundation_tls -->
<g id="edge43" class="edge">
<title>the_block&#45;&gt;foundation_tls</title>
<path fill="none" stroke="#fda4af" stroke-dasharray="1,5" d="M54.19,-2142.92C56.26,-1953.09 75.42,-330.65 126,-244 131.77,-234.12 140.45,-226.01 149.96,-219.44"/>
<polygon fill="#fda4af" stroke="#fda4af" points="151.88,-222.36 158.47,-214.07 148.14,-216.45 151.88,-222.36"/>
</g>
<!-- jurisdiction -->
<g id="node45" class="node">
<title>jurisdiction</title>
<polygon fill="#be123c" stroke="black" points="245.5,-160 164.5,-160 164.5,-124 245.5,-124 245.5,-160"/>
<text text-anchor="middle" x="205" y="-138.9" font-family="Inter" font-size="12.00" fill="#f8fafc">jurisdiction</text>
</g>
<!-- the_block&#45;&gt;jurisdiction -->
<g id="edge44" class="edge">
<title>the_block&#45;&gt;jurisdiction</title>
<path fill="none" stroke="#fda4af" stroke-dasharray="1,5" d="M54.07,-2142.76C54.91,-1947.73 63.94,-252.9 126,-169 132.99,-159.55 143.5,-153.39 154.56,-149.37"/>
<polygon fill="#fda4af" stroke="#fda4af" points="155.82,-152.65 164.35,-146.37 153.76,-145.96 155.82,-152.65"/>
</g>
<!-- tb&#45;sim -->
<g id="node46" class="node">
<title>tb&#45;sim</title>
<polygon fill="#be123c" stroke="black" points="232,-106 178,-106 178,-70 232,-70 232,-106"/>
<text text-anchor="middle" x="205" y="-84.9" font-family="Inter" font-size="12.00" fill="#f8fafc">tb&#45;sim</text>
</g>
<!-- the_block&#45;&gt;tb&#45;sim -->
<g id="edge45" class="edge">
<title>the_block&#45;&gt;tb&#45;sim</title>
<path fill="none" stroke="#fda4af" stroke-dasharray="1,5" d="M54.05,-2142.88C54.7,-1945.57 62.24,-201.29 126,-115 135.78,-101.76 152.48,-94.97 167.93,-91.5"/>
<polygon fill="#fda4af" stroke="#fda4af" points="168.62,-94.93 177.81,-89.67 167.34,-88.05 168.62,-94.93"/>
</g>
<!-- testkit -->
<g id="node47" class="node">
<title>testkit</title>
<polygon fill="#be123c" stroke="black" points="232,-52 178,-52 178,-16 232,-16 232,-52"/>
<text text-anchor="middle" x="205" y="-30.9" font-family="Inter" font-size="12.00" fill="#f8fafc">testkit</text>
</g>
<!-- the_block&#45;&gt;testkit -->
<g id="edge46" class="edge">
<title>the_block&#45;&gt;testkit</title>
<path fill="none" stroke="#fda4af" stroke-dasharray="1,5" d="M54.04,-2142.72C54.51,-1941.74 60.56,-149.64 126,-61 135.77,-47.76 152.48,-40.97 167.92,-37.5"/>
<polygon fill="#fda4af" stroke="#fda4af" points="168.61,-40.93 177.81,-35.67 167.34,-34.05 168.61,-40.93"/>
</g>
</g>
</svg>
