<?xml version="1.0" encoding="UTF-8" standalone="no"?>
<!DOCTYPE svg PUBLIC "-//W3C//DTD SVG 1.1//EN"
 "http://www.w3.org/Graphics/SVG/1.1/DTD/svg11.dtd">
<!-- Generated by graphviz version 2.43.0 (0)
 -->
<!-- Title: dependencies Pages: 1 -->
<svg width="3747pt" height="260pt"
 viewBox="0.00 0.00 3747.18 260.00" xmlns="http://www.w3.org/2000/svg" xmlns:xlink="http://www.w3.org/1999/xlink">
<g id="graph0" class="graph" transform="scale(1 1) rotate(0) translate(4 256)">
<title>dependencies</title>
<polygon fill="white" stroke="transparent" points="-4,4 -4,-256 3743.18,-256 3743.18,4 -4,4"/>
<!-- n24 -->
<g id="node1" class="node">
<title>n24</title>
<ellipse fill="none" stroke="black" cx="294.74" cy="-18" rx="59.59" ry="18"/>
<text text-anchor="middle" x="294.74" y="-14.3" font-family="Times,serif" font-size="14.00">lazy_static</text>
</g>
<!-- n28 -->
<g id="node2" class="node">
<title>n28</title>
<ellipse fill="none" stroke="black" cx="1981.74" cy="-162" rx="63.89" ry="18"/>
<text text-anchor="middle" x="1981.74" y="-158.3" font-family="Times,serif" font-size="14.00">rand v0.8.5</text>
</g>
<!-- n38 -->
<g id="node3" class="node">
<title>n38</title>
<ellipse fill="none" stroke="black" cx="2057.74" cy="-18" rx="52.79" ry="18"/>
<text text-anchor="middle" x="2057.74" y="-14.3" font-family="Times,serif" font-size="14.00">once_cell</text>
</g>
<!-- n47 -->
<g id="node4" class="node">
<title>n47</title>
<ellipse fill="none" stroke="black" cx="957.74" cy="-90" rx="41.69" ry="18"/>
<text text-anchor="middle" x="957.74" y="-86.3" font-family="Times,serif" font-size="14.00">blake3</text>
</g>
<!-- n48 -->
<g id="node5" class="node">
<title>n48</title>
<ellipse fill="none" stroke="black" cx="1125.74" cy="-90" rx="27.1" ry="18"/>
<text text-anchor="middle" x="1125.74" y="-86.3" font-family="Times,serif" font-size="14.00">hex</text>
</g>
<!-- n49 -->
<g id="node6" class="node">
<title>n49</title>
<ellipse fill="none" stroke="black" cx="1294.74" cy="-18" rx="36.29" ry="18"/>
<text text-anchor="middle" x="1294.74" y="-14.3" font-family="Times,serif" font-size="14.00">serde</text>
</g>
<!-- n54 -->
<g id="node7" class="node">
<title>n54</title>
<ellipse fill="none" stroke="black" cx="2619.74" cy="-234" rx="54.69" ry="18"/>
<text text-anchor="middle" x="2619.74" y="-230.3" font-family="Times,serif" font-size="14.00">anstream</text>
</g>
<!-- n64 -->
<g id="node8" class="node">
<title>n64</title>
<ellipse fill="none" stroke="black" cx="563.74" cy="-162" rx="46.29" ry="18"/>
<text text-anchor="middle" x="563.74" y="-158.3" font-family="Times,serif" font-size="14.00">anyhow</text>
</g>
<!-- n81 -->
<g id="node9" class="node">
<title>n81</title>
<ellipse fill="none" stroke="black" cx="461.74" cy="-18" rx="89.88" ry="18"/>
<text text-anchor="middle" x="461.74" y="-14.3" font-family="Times,serif" font-size="14.00">thiserror v1.0.69</text>
</g>
<!-- n82 -->
<g id="node10" class="node">
<title>n82</title>
<ellipse fill="none" stroke="black" cx="1048.74" cy="-90" rx="31.7" ry="18"/>
<text text-anchor="middle" x="1048.74" y="-86.3" font-family="Times,serif" font-size="14.00">time</text>
</g>
<!-- n82&#45;&gt;n49 -->
<g id="edge61" class="edge">
<title>n82&#45;&gt;n49</title>
<path fill="none" stroke="black" d="M1073.25,-78.18C1078.63,-75.99 1084.33,-73.81 1089.74,-72 1144.97,-53.51 1210.36,-37.61 1252.18,-28.17"/>
<polygon fill="black" stroke="black" points="1253.03,-31.57 1262.02,-25.97 1251.5,-24.74 1253.03,-31.57"/>
</g>
<!-- n88 -->
<g id="node11" class="node">
<title>n88</title>
<ellipse fill="none" stroke="black" cx="1498.74" cy="-90" rx="59.59" ry="18"/>
<text text-anchor="middle" x="1498.74" y="-86.3" font-family="Times,serif" font-size="14.00">serde_json</text>
</g>
<!-- n88&#45;&gt;n49 -->
<g id="edge64" class="edge">
<title>n88&#45;&gt;n49</title>
<path fill="none" stroke="black" d="M1460.85,-76C1424.62,-63.57 1370.24,-44.91 1333.67,-32.36"/>
<polygon fill="black" stroke="black" points="1334.45,-28.92 1323.85,-28.99 1332.18,-35.55 1334.45,-28.92"/>
</g>
<!-- n182 -->
<g id="node12" class="node">
<title>n182</title>
<ellipse fill="none" stroke="black" cx="2773.74" cy="-234" rx="81.49" ry="18"/>
<text text-anchor="middle" x="2773.74" y="-230.3" font-family="Times,serif" font-size="14.00">hyper v0.14.32</text>
</g>
<!-- n190 -->
<g id="node13" class="node">
<title>n190</title>
<ellipse fill="none" stroke="black" cx="2955.74" cy="-234" rx="83.39" ry="18"/>
<text text-anchor="middle" x="2955.74" y="-230.3" font-family="Times,serif" font-size="14.00">rustls&#45;pki&#45;types</text>
</g>
<!-- n229 -->
<g id="node14" class="node">
<title>n229</title>
<ellipse fill="none" stroke="black" cx="2430.74" cy="-162" rx="81.49" ry="18"/>
<text text-anchor="middle" x="2430.74" y="-158.3" font-family="Times,serif" font-size="14.00">base64 v0.22.1</text>
</g>
<!-- n244 -->
<g id="node15" class="node">
<title>n244</title>
<ellipse fill="none" stroke="black" cx="233.74" cy="-90" rx="44.39" ry="18"/>
<text text-anchor="middle" x="233.74" y="-86.3" font-family="Times,serif" font-size="14.00">futures</text>
</g>
<!-- n251 -->
<g id="node16" class="node">
<title>n251</title>
<ellipse fill="none" stroke="black" cx="771.74" cy="-162" rx="29.8" ry="18"/>
<text text-anchor="middle" x="771.74" y="-158.3" font-family="Times,serif" font-size="14.00">clap</text>
</g>
<!-- n252 -->
<g id="node17" class="node">
<title>n252</title>
<ellipse fill="none" stroke="black" cx="1371.74" cy="-90" rx="48.99" ry="18"/>
<text text-anchor="middle" x="1371.74" y="-86.3" font-family="Times,serif" font-size="14.00">tempfile</text>
</g>
<!-- n252&#45;&gt;n38 -->
<g id="edge65" class="edge">
<title>n252&#45;&gt;n38</title>
<path fill="none" stroke="black" d="M1407.05,-77.43C1414.48,-75.34 1422.31,-73.39 1429.74,-72 1634.17,-33.82 1881.21,-23.12 1994.91,-20.14"/>
<polygon fill="black" stroke="black" points="1995.25,-23.63 2005.16,-19.88 1995.08,-16.63 1995.25,-23.63"/>
</g>
<!-- n253 -->
<g id="node18" class="node">
<title>n253</title>
<ellipse fill="none" stroke="black" cx="1623.74" cy="-90" rx="46.59" ry="18"/>
<text text-anchor="middle" x="1623.74" y="-86.3" font-family="Times,serif" font-size="14.00">bincode</text>
</g>
<!-- n253&#45;&gt;n49 -->
<g id="edge45" class="edge">
<title>n253&#45;&gt;n49</title>
<path fill="none" stroke="black" d="M1588.94,-77.83C1581.96,-75.76 1574.64,-73.71 1567.74,-72 1487.84,-52.17 1393.27,-35.24 1339.01,-26.15"/>
<polygon fill="black" stroke="black" points="1339.48,-22.68 1329.04,-24.49 1338.33,-29.58 1339.48,-22.68"/>
</g>
<!-- n275 -->
<g id="node19" class="node">
<title>n275</title>
<ellipse fill="none" stroke="black" cx="1145.74" cy="-162" rx="46.29" ry="18"/>
<text text-anchor="middle" x="1145.74" y="-158.3" font-family="Times,serif" font-size="14.00">bridges</text>
</g>
<!-- n275&#45;&gt;n38 -->
<g id="edge30" class="edge">
<title>n275&#45;&gt;n38</title>
<path fill="none" stroke="black" d="M1169.94,-146.57C1208.92,-123.61 1284.23,-80.46 1313.74,-72 1440.98,-35.53 1839.44,-23.51 1994.82,-20.15"/>
<polygon fill="black" stroke="black" points="1995.21,-23.64 2005.13,-19.93 1995.06,-16.64 1995.21,-23.64"/>
</g>
<!-- n275&#45;&gt;n47 -->
<g id="edge28" class="edge">
<title>n275&#45;&gt;n47</title>
<path fill="none" stroke="black" d="M1113.42,-148.97C1081.51,-137.08 1032.61,-118.88 998.15,-106.04"/>
<polygon fill="black" stroke="black" points="998.99,-102.62 988.39,-102.41 996.54,-109.18 998.99,-102.62"/>
</g>
<!-- n275&#45;&gt;n48 -->
<g id="edge29" class="edge">
<title>n275&#45;&gt;n48</title>
<path fill="none" stroke="black" d="M1140.9,-144.05C1138.64,-136.14 1135.9,-126.54 1133.37,-117.69"/>
<polygon fill="black" stroke="black" points="1136.65,-116.44 1130.54,-107.79 1129.92,-118.37 1136.65,-116.44"/>
</g>
<!-- n275&#45;&gt;n49 -->
<g id="edge32" class="edge">
<title>n275&#45;&gt;n49</title>
<path fill="none" stroke="black" d="M1162.54,-144.99C1189.09,-119.69 1240.83,-70.38 1271.11,-41.52"/>
<polygon fill="black" stroke="black" points="1273.85,-43.74 1278.68,-34.31 1269.02,-38.67 1273.85,-43.74"/>
</g>
<!-- n275&#45;&gt;n88 -->
<g id="edge33" class="edge">
<title>n275&#45;&gt;n88</title>
<path fill="none" stroke="black" d="M1179.57,-149.71C1186.52,-147.62 1193.83,-145.6 1200.74,-144 1301.11,-120.73 1328.74,-128.34 1429.74,-108 1434.75,-106.99 1439.95,-105.86 1445.14,-104.68"/>
<polygon fill="black" stroke="black" points="1446.13,-108.04 1455.07,-102.36 1444.53,-101.23 1446.13,-108.04"/>
</g>
<!-- n275&#45;&gt;n252 -->
<g id="edge34" class="edge">
<title>n275&#45;&gt;n252</title>
<path fill="none" stroke="black" d="M1181.05,-150.06C1220.1,-137.97 1283.12,-118.45 1325.94,-105.19"/>
<polygon fill="black" stroke="black" points="1327.04,-108.51 1335.56,-102.21 1324.97,-101.82 1327.04,-108.51"/>
</g>
<!-- n276 -->
<g id="node20" class="node">
<title>n276</title>
<ellipse fill="none" stroke="black" cx="361.74" cy="-90" rx="66.09" ry="18"/>
<text text-anchor="middle" x="361.74" y="-86.3" font-family="Times,serif" font-size="14.00">prometheus</text>
</g>
<!-- n275&#45;&gt;n276 -->
<g id="edge31" class="edge">
<title>n275&#45;&gt;n276</title>
<path fill="none" stroke="black" d="M1106.08,-152.64C1089.64,-149.47 1070.34,-146.11 1052.74,-144 780.45,-111.28 708.28,-146.44 436.74,-108 430.81,-107.16 424.66,-106.09 418.54,-104.9"/>
<polygon fill="black" stroke="black" points="418.83,-101.39 408.33,-102.81 417.42,-108.25 418.83,-101.39"/>
</g>
<!-- n276&#45;&gt;n24 -->
<g id="edge35" class="edge">
<title>n276&#45;&gt;n24</title>
<path fill="none" stroke="black" d="M345.86,-72.41C337.44,-63.61 326.93,-52.63 317.63,-42.92"/>
<polygon fill="black" stroke="black" points="319.95,-40.27 310.51,-35.47 314.89,-45.11 319.95,-40.27"/>
</g>
<!-- n276&#45;&gt;n81 -->
<g id="edge37" class="edge">
<title>n276&#45;&gt;n81</title>
<path fill="none" stroke="black" d="M384.93,-72.76C398.34,-63.38 415.4,-51.44 430.04,-41.19"/>
<polygon fill="black" stroke="black" points="432.14,-43.99 438.33,-35.39 428.13,-38.26 432.14,-43.99"/>
</g>
<!-- n505 -->
<g id="node32" class="node">
<title>n505</title>
<ellipse fill="none" stroke="black" cx="100.74" cy="-18" rx="100.98" ry="18"/>
<text text-anchor="middle" x="100.74" y="-14.3" font-family="Times,serif" font-size="14.00">parking_lot v0.12.4</text>
</g>
<!-- n276&#45;&gt;n505 -->
<g id="edge36" class="edge">
<title>n276&#45;&gt;n505</title>
<path fill="none" stroke="black" d="M316.28,-76.81C274.15,-65.51 211.07,-48.59 164.02,-35.97"/>
<polygon fill="black" stroke="black" points="164.8,-32.56 154.24,-33.35 162.99,-39.32 164.8,-32.56"/>
</g>
<!-- n316 -->
<g id="node21" class="node">
<title>n316</title>
<ellipse fill="none" stroke="black" cx="884.74" cy="-162" rx="27.1" ry="18"/>
<text text-anchor="middle" x="884.74" y="-158.3" font-family="Times,serif" font-size="14.00">dex</text>
</g>
<!-- n316&#45;&gt;n47 -->
<g id="edge38" class="edge">
<title>n316&#45;&gt;n47</title>
<path fill="none" stroke="black" d="M899.51,-146.83C909.4,-137.36 922.62,-124.67 933.97,-113.79"/>
<polygon fill="black" stroke="black" points="936.67,-116.05 941.47,-106.61 931.83,-111 936.67,-116.05"/>
</g>
<!-- n316&#45;&gt;n48 -->
<g id="edge39" class="edge">
<title>n316&#45;&gt;n48</title>
<path fill="none" stroke="black" d="M910.18,-155.06C957.32,-143.94 1056.47,-120.04 1089.74,-108 1091.59,-107.33 1093.48,-106.6 1095.37,-105.83"/>
<polygon fill="black" stroke="black" points="1096.94,-108.96 1104.7,-101.74 1094.14,-102.55 1096.94,-108.96"/>
</g>
<!-- n316&#45;&gt;n49 -->
<g id="edge40" class="edge">
<title>n316&#45;&gt;n49</title>
<path fill="none" stroke="black" d="M883.71,-143.74C883.52,-123.4 886.62,-90.09 906.74,-72 956.16,-27.59 1156.32,-20.1 1248.21,-19.04"/>
<polygon fill="black" stroke="black" points="1248.37,-22.54 1258.34,-18.94 1248.3,-15.54 1248.37,-22.54"/>
</g>
<!-- n320 -->
<g id="node23" class="node">
<title>n320</title>
<ellipse fill="none" stroke="black" cx="827.74" cy="-90" rx="32.49" ry="18"/>
<text text-anchor="middle" x="827.74" y="-86.3" font-family="Times,serif" font-size="14.00">sha3</text>
</g>
<!-- n316&#45;&gt;n320 -->
<g id="edge41" class="edge">
<title>n316&#45;&gt;n320</title>
<path fill="none" stroke="black" d="M872.37,-145.81C864.93,-136.67 855.3,-124.85 846.9,-114.52"/>
<polygon fill="black" stroke="black" points="849.51,-112.19 840.48,-106.64 844.08,-116.61 849.51,-112.19"/>
</g>
<!-- n317 -->
<g id="node22" class="node">
<title>n317</title>
<ellipse fill="none" stroke="black" cx="666.74" cy="-90" rx="110.48" ry="18"/>
<text text-anchor="middle" x="666.74" y="-86.3" font-family="Times,serif" font-size="14.00">ed25519&#45;dalek v2.2.0</text>
</g>
<!-- n317&#45;&gt;n49 -->
<g id="edge44" class="edge">
<title>n317&#45;&gt;n49</title>
<path fill="none" stroke="black" d="M745.76,-77.38C759.41,-75.5 773.48,-73.63 786.74,-72 957.12,-51.05 1160.31,-31.48 1249.26,-23.18"/>
<polygon fill="black" stroke="black" points="1249.64,-26.66 1259.28,-22.25 1249,-19.69 1249.64,-26.66"/>
</g>
<!-- n321 -->
<g id="node24" class="node">
<title>n321</title>
<ellipse fill="none" stroke="black" cx="491.74" cy="-90" rx="46.29" ry="18"/>
<text text-anchor="middle" x="491.74" y="-86.3" font-family="Times,serif" font-size="14.00">storage</text>
</g>
<!-- n321&#45;&gt;n49 -->
<g id="edge46" class="edge">
<title>n321&#45;&gt;n49</title>
<path fill="none" stroke="black" d="M525.2,-77.51C532.55,-75.36 540.35,-73.37 547.74,-72 809.29,-23.65 1129.85,-18.73 1248.08,-18.7"/>
<polygon fill="black" stroke="black" points="1248.23,-22.2 1258.23,-18.71 1248.23,-15.2 1248.23,-22.2"/>
</g>
<!-- n321&#45;&gt;n81 -->
<g id="edge47" class="edge">
<title>n321&#45;&gt;n81</title>
<path fill="none" stroke="black" d="M484.48,-72.05C481.07,-64.09 476.92,-54.41 473.1,-45.51"/>
<polygon fill="black" stroke="black" points="476.3,-44.09 469.14,-36.28 469.87,-46.85 476.3,-44.09"/>
</g>
<!-- n322 -->
<g id="node25" class="node">
<title>n322</title>
<polygon fill="none" stroke="black" points="1290.74,-252 1206.74,-252 1206.74,-216 1290.74,-216 1290.74,-252"/>
<text text-anchor="middle" x="1248.74" y="-230.3" font-family="Times,serif" font-size="14.00">the_block</text>
</g>
<!-- n322&#45;&gt;n28 -->
<g id="edge16" class="edge">
<title>n322&#45;&gt;n28</title>
<path fill="none" stroke="black" d="M1291.08,-231.78C1396.19,-228.28 1677.31,-216.03 1908.74,-180 1914.51,-179.1 1920.49,-178 1926.44,-176.79"/>
<polygon fill="black" stroke="black" points="1927.34,-180.17 1936.38,-174.66 1925.87,-173.33 1927.34,-180.17"/>
</g>
<!-- n322&#45;&gt;n38 -->
<g id="edge14" class="edge">
<title>n322&#45;&gt;n38</title>
<path fill="none" stroke="black" d="M1290.76,-232.49C1482.57,-229.94 2267.29,-217.28 2302.74,-180 2335.82,-145.22 2332.88,-109.36 2302.74,-72 2280.04,-43.87 2183.65,-29.93 2118.75,-23.61"/>
<polygon fill="black" stroke="black" points="2118.9,-20.11 2108.62,-22.66 2118.25,-27.08 2118.9,-20.11"/>
</g>
<!-- n322&#45;&gt;n47 -->
<g id="edge4" class="edge">
<title>n322&#45;&gt;n47</title>
<path fill="none" stroke="black" d="M1206.53,-231.63C1133.89,-228.3 990.01,-217.07 958.74,-180 944.47,-163.08 945.86,-137.23 949.85,-117.74"/>
<polygon fill="black" stroke="black" points="953.27,-118.47 952.18,-107.93 946.46,-116.85 953.27,-118.47"/>
</g>
<!-- n322&#45;&gt;n48 -->
<g id="edge11" class="edge">
<title>n322&#45;&gt;n48</title>
<path fill="none" stroke="black" d="M1206.59,-231.76C1169.33,-228.16 1116.93,-216.41 1090.74,-180 1076.13,-159.69 1090.85,-132.45 1105.43,-113.48"/>
<polygon fill="black" stroke="black" points="1108.21,-115.61 1111.8,-105.65 1102.77,-111.2 1108.21,-115.61"/>
</g>
<!-- n322&#45;&gt;n49 -->
<g id="edge18" class="edge">
<title>n322&#45;&gt;n49</title>
<path fill="none" stroke="black" d="M1290.94,-233.53C1356.45,-232.79 1485.21,-225.08 1582.74,-180 1605.06,-169.68 1605.08,-158.76 1624.74,-144 1648.1,-126.46 1665.85,-133.7 1679.74,-108 1687.35,-93.93 1690.26,-84.06 1679.74,-72 1636.36,-22.23 1434.3,-17.58 1341.53,-18.15"/>
<polygon fill="black" stroke="black" points="1341.27,-14.66 1331.3,-18.24 1341.33,-21.65 1341.27,-14.66"/>
</g>
<!-- n322&#45;&gt;n64 -->
<g id="edge1" class="edge">
<title>n322&#45;&gt;n64</title>
<path fill="none" stroke="black" d="M1206.68,-232.21C1105.48,-229.69 840.68,-219.55 623.74,-180 618.68,-179.08 613.43,-177.91 608.23,-176.62"/>
<polygon fill="black" stroke="black" points="608.94,-173.19 598.38,-174.03 607.16,-179.96 608.94,-173.19"/>
</g>
<!-- n322&#45;&gt;n81 -->
<g id="edge24" class="edge">
<title>n322&#45;&gt;n81</title>
<path fill="none" stroke="black" d="M1206.48,-232.34C1013.54,-229.14 223.98,-214.02 184.74,-180 148.17,-148.29 139.73,-109.17 170.74,-72 172.49,-69.9 300.63,-47.15 386.27,-32.15"/>
<polygon fill="black" stroke="black" points="386.98,-35.58 396.23,-30.4 385.77,-28.68 386.98,-35.58"/>
</g>
<!-- n322&#45;&gt;n88 -->
<g id="edge19" class="edge">
<title>n322&#45;&gt;n88</title>
<path fill="none" stroke="black" d="M1264.44,-215.88C1286.92,-191.5 1326.49,-149.14 1334.74,-144 1353.51,-132.3 1405.28,-116.44 1445.68,-105.13"/>
<polygon fill="black" stroke="black" points="1446.72,-108.47 1455.42,-102.43 1444.85,-101.73 1446.72,-108.47"/>
</g>
<!-- n322&#45;&gt;n229 -->
<g id="edge2" class="edge">
<title>n322&#45;&gt;n229</title>
<path fill="none" stroke="black" d="M1290.87,-232.89C1436.31,-232.08 1930.7,-225.92 2335.74,-180 2344.45,-179.01 2353.57,-177.72 2362.56,-176.29"/>
<polygon fill="black" stroke="black" points="2363.34,-179.7 2372.64,-174.62 2362.2,-172.8 2363.34,-179.7"/>
</g>
<!-- n322&#45;&gt;n244 -->
<g id="edge10" class="edge">
<title>n322&#45;&gt;n244</title>
<path fill="none" stroke="black" d="M1206.48,-233.17C1087.06,-233.03 749.47,-228.26 651.74,-180 632.28,-170.39 638.11,-153.8 618.74,-144 486.31,-76.99 431.93,-138.82 286.74,-108 283.13,-107.23 279.41,-106.31 275.7,-105.31"/>
<polygon fill="black" stroke="black" points="276.55,-101.91 265.97,-102.48 274.6,-108.63 276.55,-101.91"/>
</g>
<!-- n322&#45;&gt;n251 -->
<g id="edge6" class="edge">
<title>n322&#45;&gt;n251</title>
<path fill="none" stroke="black" d="M1206.62,-231.29C1128.48,-227.37 956.25,-215.17 815.74,-180 812.11,-179.09 808.38,-177.97 804.69,-176.73"/>
<polygon fill="black" stroke="black" points="805.74,-173.39 795.14,-173.27 803.35,-179.97 805.74,-173.39"/>
</g>
<!-- n322&#45;&gt;n252 -->
<g id="edge23" class="edge">
<title>n322&#45;&gt;n252</title>
<path fill="none" stroke="black" d="M1290.82,-233.51C1449.09,-234.99 2002.23,-236.07 2054.74,-180 2065.68,-168.32 2065.72,-155.63 2054.74,-144 2006.99,-93.42 1498.28,-119.86 1429.74,-108 1425.38,-107.25 1420.88,-106.28 1416.4,-105.19"/>
<polygon fill="black" stroke="black" points="1417.27,-101.8 1406.71,-102.64 1415.49,-108.57 1417.27,-101.8"/>
</g>
<!-- n322&#45;&gt;n253 -->
<g id="edge3" class="edge">
<title>n322&#45;&gt;n253</title>
<path fill="none" stroke="black" d="M1291.02,-229.11C1362.93,-221.9 1505.49,-204.92 1548.74,-180 1574.97,-164.89 1596.19,-136.98 1609.28,-116.43"/>
<polygon fill="black" stroke="black" points="1612.29,-118.21 1614.54,-107.85 1606.33,-114.54 1612.29,-118.21"/>
</g>
<!-- n322&#45;&gt;n275 -->
<g id="edge5" class="edge">
<title>n322&#45;&gt;n275</title>
<path fill="none" stroke="black" d="M1223.54,-215.88C1209.31,-206.2 1191.4,-194.03 1176.36,-183.81"/>
<polygon fill="black" stroke="black" points="1178.12,-180.77 1167.88,-178.05 1174.18,-186.56 1178.12,-180.77"/>
</g>
<!-- n322&#45;&gt;n316 -->
<g id="edge7" class="edge">
<title>n322&#45;&gt;n316</title>
<path fill="none" stroke="black" d="M1206.51,-229.2C1144.16,-222.9 1024.24,-208.1 925.74,-180 922.55,-179.09 919.28,-178.01 916.04,-176.83"/>
<polygon fill="black" stroke="black" points="917.13,-173.5 906.54,-173.13 914.58,-180.02 917.13,-173.5"/>
</g>
<!-- n322&#45;&gt;n317 -->
<g id="edge8" class="edge">
<title>n322&#45;&gt;n317</title>
<path fill="none" stroke="black" d="M1206.6,-232.98C1098.35,-232.24 813.35,-225.89 732.74,-180 707.81,-165.8 689.52,-137.94 678.6,-117.15"/>
<polygon fill="black" stroke="black" points="681.72,-115.55 674.11,-108.17 675.46,-118.68 681.72,-115.55"/>
</g>
<!-- n322&#45;&gt;n320 -->
<g id="edge20" class="edge">
<title>n322&#45;&gt;n320</title>
<path fill="none" stroke="black" d="M1206.46,-233.25C1114.53,-232.88 900.56,-226.88 848.74,-180 831.78,-164.65 827.26,-138.38 826.55,-118.35"/>
<polygon fill="black" stroke="black" points="830.05,-118.23 826.48,-108.25 823.05,-118.28 830.05,-118.23"/>
</g>
<!-- n322&#45;&gt;n321 -->
<g id="edge22" class="edge">
<title>n322&#45;&gt;n321</title>
<path fill="none" stroke="black" d="M1206.38,-232.31C1093.02,-229.94 785.09,-219.9 692.74,-180 670.48,-170.38 672.78,-156.05 651.74,-144 641.44,-138.1 579.94,-118.39 536.27,-104.75"/>
<polygon fill="black" stroke="black" points="537.29,-101.4 526.7,-101.77 535.2,-108.08 537.29,-101.4"/>
</g>
<!-- n324 -->
<g id="node27" class="node">
<title>n324</title>
<ellipse fill="none" stroke="black" cx="1248.74" cy="-162" rx="38.99" ry="18"/>
<text text-anchor="middle" x="1248.74" y="-158.3" font-family="Times,serif" font-size="14.00">wallet</text>
</g>
<!-- n322&#45;&gt;n324 -->
<g id="edge27" class="edge">
<title>n322&#45;&gt;n324</title>
<path fill="none" stroke="black" d="M1248.74,-215.7C1248.74,-207.98 1248.74,-198.71 1248.74,-190.11"/>
<polygon fill="black" stroke="black" points="1252.24,-190.1 1248.74,-180.1 1245.24,-190.1 1252.24,-190.1"/>
</g>
<!-- n429 -->
<g id="node28" class="node">
<title>n429</title>
<ellipse fill="none" stroke="black" cx="1380.74" cy="-162" rx="37.09" ry="18"/>
<text text-anchor="middle" x="1380.74" y="-158.3" font-family="Times,serif" font-size="14.00">flate2</text>
</g>
<!-- n322&#45;&gt;n429 -->
<g id="edge9" class="edge">
<title>n322&#45;&gt;n429</title>
<path fill="none" stroke="black" d="M1281.03,-215.88C1301.29,-205.14 1327.33,-191.32 1347.72,-180.51"/>
<polygon fill="black" stroke="black" points="1349.45,-183.55 1356.65,-175.78 1346.17,-177.37 1349.45,-183.55"/>
</g>
<!-- n471 -->
<g id="node30" class="node">
<title>n471</title>
<ellipse fill="none" stroke="black" cx="1487.74" cy="-162" rx="51.99" ry="18"/>
<text text-anchor="middle" x="1487.74" y="-158.3" font-family="Times,serif" font-size="14.00">tokio&#45;util</text>
</g>
<!-- n322&#45;&gt;n471 -->
<g id="edge25" class="edge">
<title>n322&#45;&gt;n471</title>
<path fill="none" stroke="black" d="M1290.92,-220.65C1332.44,-208.48 1395.8,-189.93 1439.35,-177.17"/>
<polygon fill="black" stroke="black" points="1440.53,-180.47 1449.14,-174.3 1438.56,-173.76 1440.53,-180.47"/>
</g>
<!-- n322&#45;&gt;n505 -->
<g id="edge15" class="edge">
<title>n322&#45;&gt;n505</title>
<path fill="none" stroke="black" d="M1206.66,-232.29C1010.82,-228.81 196.36,-212.44 153.74,-180 112.18,-148.37 102.77,-83.21 100.91,-46.22"/>
<polygon fill="black" stroke="black" points="104.41,-46.02 100.56,-36.15 97.41,-46.26 104.41,-46.02"/>
</g>
<!-- n591 -->
<g id="node33" class="node">
<title>n591</title>
<ellipse fill="none" stroke="black" cx="233.74" cy="-162" rx="40.09" ry="18"/>
<text text-anchor="middle" x="233.74" y="-158.3" font-family="Times,serif" font-size="14.00">libp2p</text>
</g>
<!-- n322&#45;&gt;n591 -->
<g id="edge12" class="edge">
<title>n322&#45;&gt;n591</title>
<path fill="none" stroke="black" d="M1206.74,-230.1C1044.42,-218.91 458.46,-178.5 283.44,-166.43"/>
<polygon fill="black" stroke="black" points="283.45,-162.92 273.23,-165.72 282.97,-169.9 283.45,-162.92"/>
</g>
<!-- n653 -->
<g id="node35" class="node">
<title>n653</title>
<ellipse fill="none" stroke="black" cx="1671.74" cy="-162" rx="37.89" ry="18"/>
<text text-anchor="middle" x="1671.74" y="-158.3" font-family="Times,serif" font-size="14.00">notify</text>
</g>
<!-- n322&#45;&gt;n653 -->
<g id="edge13" class="edge">
<title>n322&#45;&gt;n653</title>
<path fill="none" stroke="black" d="M1290.91,-229.39C1360.2,-222.91 1502.2,-207.39 1619.74,-180 1624.07,-178.99 1628.56,-177.78 1633,-176.48"/>
<polygon fill="black" stroke="black" points="1634.05,-179.82 1642.57,-173.52 1631.98,-173.13 1634.05,-179.82"/>
</g>
<!-- n655 -->
<g id="node37" class="node">
<title>n655</title>
<ellipse fill="none" stroke="black" cx="1757.74" cy="-162" rx="29.8" ry="18"/>
<text text-anchor="middle" x="1757.74" y="-158.3" font-family="Times,serif" font-size="14.00">sled</text>
</g>
<!-- n322&#45;&gt;n655 -->
<g id="edge21" class="edge">
<title>n322&#45;&gt;n655</title>
<path fill="none" stroke="black" d="M1291.01,-232.43C1374.29,-230.4 1564.86,-221.21 1718.74,-180 1721.18,-179.35 1723.65,-178.57 1726.12,-177.7"/>
<polygon fill="black" stroke="black" points="1727.42,-180.96 1735.47,-174.07 1724.88,-174.43 1727.42,-180.96"/>
</g>
<!-- n762 -->
<g id="node40" class="node">
<title>n762</title>
<ellipse fill="none" stroke="black" cx="1852.74" cy="-162" rx="47.39" ry="18"/>
<text text-anchor="middle" x="1852.74" y="-158.3" font-family="Times,serif" font-size="14.00">rocksdb</text>
</g>
<!-- n322&#45;&gt;n762 -->
<g id="edge17" class="edge">
<title>n322&#45;&gt;n762</title>
<path fill="none" stroke="black" d="M1290.74,-231.77C1383.09,-228.46 1610.39,-216.92 1796.74,-180 1800.61,-179.23 1804.6,-178.31 1808.57,-177.29"/>
<polygon fill="black" stroke="black" points="1809.64,-180.63 1818.36,-174.61 1807.79,-173.87 1809.64,-180.63"/>
</g>
<!-- n814 -->
<g id="node41" class="node">
<title>n814</title>
<ellipse fill="none" stroke="black" cx="2197.74" cy="-162" rx="96.38" ry="18"/>
<text text-anchor="middle" x="2197.74" y="-158.3" font-family="Times,serif" font-size="14.00">tracing&#45;subscriber</text>
</g>
<!-- n322&#45;&gt;n814 -->
<g id="edge26" class="edge">
<title>n322&#45;&gt;n814</title>
<path fill="none" stroke="black" d="M1290.76,-231.69C1413.66,-227.56 1783.04,-213.1 2087.74,-180 2097.86,-178.9 2108.47,-177.53 2118.94,-176.06"/>
<polygon fill="black" stroke="black" points="2119.52,-179.51 2128.92,-174.61 2118.52,-172.58 2119.52,-179.51"/>
</g>
<!-- n323 -->
<g id="node26" class="node">
<title>n323</title>
<ellipse fill="none" stroke="black" cx="3184.74" cy="-234" rx="128.08" ry="18"/>
<text text-anchor="middle" x="3184.74" y="-230.3" font-family="Times,serif" font-size="14.00">runtime::ws</text>
</g>
<!-- n324&#45;&gt;n38 -->
<g id="edge53" class="edge">
<title>n324&#45;&gt;n38</title>
<path fill="none" stroke="black" d="M1283.35,-153.41C1298.99,-150.18 1317.74,-146.56 1334.74,-144 1487.19,-121.03 1527.74,-133.72 1679.74,-108 1799.1,-87.81 1936.98,-52.16 2008.68,-32.67"/>
<polygon fill="black" stroke="black" points="2009.63,-36.04 2018.35,-30.03 2007.78,-29.28 2009.63,-36.04"/>
</g>
<!-- n324&#45;&gt;n48 -->
<g id="edge52" class="edge">
<title>n324&#45;&gt;n48</title>
<path fill="none" stroke="black" d="M1225.03,-147.5C1204.96,-136.08 1176.13,-119.68 1154.7,-107.48"/>
<polygon fill="black" stroke="black" points="1156.15,-104.28 1145.73,-102.37 1152.69,-110.36 1156.15,-104.28"/>
</g>
<!-- n324&#45;&gt;n49 -->
<g id="edge54" class="edge">
<title>n324&#45;&gt;n49</title>
<path fill="none" stroke="black" d="M1254.2,-144.15C1262.08,-119.81 1276.74,-74.57 1286.1,-45.67"/>
<polygon fill="black" stroke="black" points="1289.54,-46.42 1289.29,-35.82 1282.88,-44.26 1289.54,-46.42"/>
</g>
<!-- n324&#45;&gt;n81 -->
<g id="edge57" class="edge">
<title>n324&#45;&gt;n81</title>
<path fill="none" stroke="black" d="M1238.17,-144.34C1223.76,-123.29 1195.82,-87.88 1161.74,-72 1108.54,-47.2 739.05,-29.71 559.39,-22.58"/>
<polygon fill="black" stroke="black" points="559.28,-19.07 549.15,-22.17 559,-26.06 559.28,-19.07"/>
</g>
<!-- n324&#45;&gt;n88 -->
<g id="edge55" class="edge">
<title>n324&#45;&gt;n88</title>
<path fill="none" stroke="black" d="M1279.49,-150.86C1286.77,-148.54 1294.51,-146.13 1301.74,-144 1349.82,-129.83 1404.94,-115.13 1444.62,-104.82"/>
<polygon fill="black" stroke="black" points="1445.56,-108.19 1454.37,-102.29 1443.81,-101.41 1445.56,-108.19"/>
</g>
<!-- n324&#45;&gt;n252 -->
<g id="edge56" class="edge">
<title>n324&#45;&gt;n252</title>
<path fill="none" stroke="black" d="M1272.46,-147.5C1290.94,-136.98 1316.87,-122.23 1337.59,-110.44"/>
<polygon fill="black" stroke="black" points="1339.44,-113.41 1346.4,-105.42 1335.98,-107.32 1339.44,-113.41"/>
</g>
<!-- n466 -->
<g id="node29" class="node">
<title>n466</title>
<ellipse fill="none" stroke="black" cx="3400.74" cy="-234" rx="70.39" ry="18"/>
<text text-anchor="middle" x="3400.74" y="-230.3" font-family="Times,serif" font-size="14.00">regex&#45;syntax</text>
</g>
<!-- n486 -->
<g id="node31" class="node">
<title>n486</title>
<ellipse fill="none" stroke="black" cx="3531.74" cy="-234" rx="42.79" ry="18"/>
<text text-anchor="middle" x="3531.74" y="-230.3" font-family="Times,serif" font-size="14.00">similar</text>
</g>
<!-- n591&#45;&gt;n81 -->
<g id="edge43" class="edge">
<title>n591&#45;&gt;n81</title>
<path fill="none" stroke="black" d="M213.99,-146.23C191.71,-127.8 161,-95.81 180.74,-72 182.42,-69.98 304.87,-47.43 387.55,-32.41"/>
<polygon fill="black" stroke="black" points="388.22,-35.84 397.43,-30.61 386.96,-28.96 388.22,-35.84"/>
</g>
<!-- n591&#45;&gt;n244 -->
<g id="edge42" class="edge">
<title>n591&#45;&gt;n244</title>
<path fill="none" stroke="black" d="M233.74,-143.7C233.74,-135.98 233.74,-126.71 233.74,-118.11"/>
<polygon fill="black" stroke="black" points="237.24,-118.1 233.74,-108.1 230.24,-118.1 237.24,-118.1"/>
</g>
<!-- n628 -->
<g id="node34" class="node">
<title>n628</title>
<ellipse fill="none" stroke="black" cx="1005.74" cy="-162" rx="37.89" ry="18"/>
<text text-anchor="middle" x="1005.74" y="-158.3" font-family="Times,serif" font-size="14.00">yasna</text>
</g>
<!-- n628&#45;&gt;n82 -->
<g id="edge60" class="edge">
<title>n628&#45;&gt;n82</title>
<path fill="none" stroke="black" d="M1015.93,-144.41C1021.13,-135.95 1027.55,-125.49 1033.34,-116.08"/>
<polygon fill="black" stroke="black" points="1036.37,-117.82 1038.62,-107.47 1030.41,-114.16 1036.37,-117.82"/>
</g>
<!-- n654 -->
<g id="node36" class="node">
<title>n654</title>
<ellipse fill="none" stroke="black" cx="2057.74" cy="-90" rx="46.29" ry="18"/>
<text text-anchor="middle" x="2057.74" y="-86.3" font-family="Times,serif" font-size="14.00">openssl</text>
</g>
<!-- n654&#45;&gt;n38 -->
<g id="edge63" class="edge">
<title>n654&#45;&gt;n38</title>
<path fill="none" stroke="black" d="M2057.74,-71.7C2057.74,-63.98 2057.74,-54.71 2057.74,-46.11"/>
<polygon fill="black" stroke="black" points="2061.24,-46.1 2057.74,-36.1 2054.24,-46.1 2061.24,-46.1"/>
</g>
<!-- n694 -->
<g id="node38" class="node">
<title>n694</title>
<ellipse fill="none" stroke="black" cx="2484.74" cy="-234" rx="62.29" ry="18"/>
<text text-anchor="middle" x="2484.74" y="-230.3" font-family="Times,serif" font-size="14.00">pem v3.0.5</text>
</g>
<!-- n694&#45;&gt;n49 -->
<g id="edge59" class="edge">
<title>n694&#45;&gt;n49</title>
<path fill="none" stroke="black" d="M2501.05,-216.29C2518.11,-196.79 2539.96,-164.6 2520.74,-144 2481.38,-101.81 2059.91,-115.8 2002.74,-108 1923.63,-97.21 1905.68,-83.97 1826.74,-72 1648.03,-44.89 1433.35,-28.36 1340.85,-22"/>
<polygon fill="black" stroke="black" points="1340.92,-18.49 1330.7,-21.31 1340.44,-25.48 1340.92,-18.49"/>
</g>
<!-- n694&#45;&gt;n229 -->
<g id="edge58" class="edge">
<title>n694&#45;&gt;n229</title>
<path fill="none" stroke="black" d="M2471.67,-216.05C2465.17,-207.63 2457.19,-197.28 2450,-187.97"/>
<polygon fill="black" stroke="black" points="2452.57,-185.57 2443.69,-179.79 2447.03,-189.84 2452.57,-185.57"/>
</g>
<!-- n750 -->
<g id="node39" class="node">
<title>n750</title>
<ellipse fill="none" stroke="black" cx="3665.74" cy="-234" rx="73.39" ry="18"/>
<text text-anchor="middle" x="3665.74" y="-230.3" font-family="Times,serif" font-size="14.00">ring v0.17.14</text>
</g>
<!-- n814&#45;&gt;n38 -->
<g id="edge48" class="edge">
<title>n814&#45;&gt;n38</title>
<path fill="none" stroke="black" d="M2181.97,-144.07C2165.05,-126.01 2137.31,-96.68 2112.74,-72 2102.85,-62.06 2091.75,-51.29 2082.12,-42.07"/>
<polygon fill="black" stroke="black" points="2084.42,-39.43 2074.77,-35.06 2079.59,-44.49 2084.42,-39.43"/>
</g>
<!-- n814&#45;&gt;n49 -->
<g id="edge49" class="edge">
<title>n814&#45;&gt;n49</title>
<path fill="none" stroke="black" d="M2134.76,-148.29C2042.44,-129.92 1864.8,-95.57 1712.74,-72 1577.77,-51.08 1417.32,-32.48 1340.36,-23.95"/>
<polygon fill="black" stroke="black" points="1340.39,-20.43 1330.06,-22.81 1339.62,-27.39 1340.39,-20.43"/>
</g>
<!-- n814&#45;&gt;n88 -->
<g id="edge50" class="edge">
<title>n814&#45;&gt;n88</title>
<path fill="none" stroke="black" d="M2128.62,-149.41C2115.09,-147.4 2100.99,-145.48 2087.74,-144 1857.51,-118.29 1796.62,-143.84 1567.74,-108 1562.33,-107.15 1556.73,-106.09 1551.15,-104.91"/>
<polygon fill="black" stroke="black" points="1551.73,-101.45 1541.2,-102.68 1550.2,-108.28 1551.73,-101.45"/>
</g>
<!-- n831 -->
<g id="node42" class="node">
<title>n831</title>
<ellipse fill="none" stroke="black" cx="2226.74" cy="-90" rx="66.89" ry="18"/>
<text text-anchor="middle" x="2226.74" y="-86.3" font-family="Times,serif" font-size="14.00">tracing&#45;core</text>
</g>
<!-- n814&#45;&gt;n831 -->
<g id="edge51" class="edge">
<title>n814&#45;&gt;n831</title>
<path fill="none" stroke="black" d="M2204.91,-143.7C2208.18,-135.81 2212.12,-126.3 2215.74,-117.55"/>
<polygon fill="black" stroke="black" points="2219.06,-118.68 2219.65,-108.1 2212.59,-116 2219.06,-118.68"/>
</g>
<!-- n831&#45;&gt;n38 -->
<g id="edge62" class="edge">
<title>n831&#45;&gt;n38</title>
<path fill="none" stroke="black" d="M2191.72,-74.5C2164.8,-63.34 2127.52,-47.9 2099.12,-36.14"/>
<polygon fill="black" stroke="black" points="2100.43,-32.89 2089.85,-32.3 2097.75,-39.36 2100.43,-32.89"/>
</g>
</g>
</svg>
